<svg width="757" height="80" viewBox="0 0 757 80" xmlns="http://www.w3.org/2000/svg" xmlns:xlink="http://www.w3.org/1999/xlink"><title>missing-desktop</title><defs><path d="M72.503.003H2.906L.06 3.22v52.072l2.846 3.22h70.188l2.844-3.222V3.222L73.094.002h-.59zm-55.33 8.21h41.654L38 26.098 17.173 8.212zm25.974 25.129L68.35 11.65v38.271H7.65v-38.27l25.205 21.69h10.293z" id="a"/></defs><g fill="none" fill-rule="evenodd"><g fill="#FEE307"><path d="M370.863 40.498c0 14.358 2.42 18.105 6.633 18.105 4.136 0 6.476-3.824 6.476-18.183 0-14.28-2.262-17.791-6.554-17.791-4.135 0-6.555 3.59-6.555 17.869m-15.372-.078c0-13.734 8.74-22.24 21.85-22.24 13.109 0 22.005 8.506 22.005 22.318 0 13.89-8.74 22.63-21.928 22.63-13.032 0-21.927-8.817-21.927-22.708M406.21 56.651v-30.51l-4.682-1.873v-3.355l16.933-2.498 1.716.157v4.994h.47c3.667-3.278 7.724-5.385 13.264-5.385 4.916 0 7.96 1.484 9.598 5.464h.313c3.823-3.357 8.115-5.464 13.656-5.464 7.023 0 10.846 3.59 10.846 11.393V56.65l4.525 1.952v3.354h-22.004v-3.354l3.51-1.952V31.76c0-4.292-1.871-6.01-5.07-6.01-1.796 0-3.59.625-5.073 1.25V56.65l3.512 1.952v3.354h-20.757v-3.354l3.589-1.952V31.76c0-4.292-1.638-6.01-4.994-6.01-2.028 0-3.668.547-5.15 1.327v29.575l3.433 1.952v3.354h-22.083v-3.354l4.448-1.952zM489.39 37.455l12.095-.78c0-10.925-1.874-14.124-5.618-14.124-3.98 0-6.477 4.37-6.477 14.904zm.234 4.293c.468 8.816 3.746 12.952 13.11 12.952 4.525 0 7.725-.936 10.768-2.496v3.9c-2.342 3.2-8.271 7.024-16.543 7.024-14.514 0-21.928-8.74-21.928-22.707 0-13.655 8.116-22.162 21.226-22.162 12.33 0 18.728 6.165 18.728 22.396v1.093h-25.36zM517.48 24.97v-3.668l6.087-2.108V11.55l14.2-2.264v9.91h9.443v5.774h-9.443v25.127c0 4.37 1.25 6.164 5.93 6.164 1.406 0 3.045-.076 3.98-.233v4.058c-2.497 1.482-6.631 2.73-11.47 2.73-8.506 0-12.64-3.744-12.64-12.952V24.969h-6.088zM554.933 56.573V8.115l-4.683-1.872V2.809L567.184.311l1.795.234v23.021h.468c3.745-3.279 9.13-5.385 14.514-5.385 7.413 0 10.69 3.511 10.69 11.314v27.078l4.448 2.03v3.355h-22.63v-3.356l3.98-1.795v-24.97c0-4.292-1.872-6.01-5.384-6.01-2.34 0-4.214.548-5.853 1.249v29.731l3.902 1.795v3.356h-22.63v-3.356l4.449-2.03zM619.932 8.271c0 4.136-3.511 7.256-7.57 7.256-4.214 0-7.491-3.12-7.491-7.256s3.277-7.335 7.49-7.335c4.06 0 7.57 3.2 7.57 7.335zm-1.56 10.144l1.482.157V56.65l4.369 1.952v3.355h-23.098v-3.355l4.448-1.952V26.14l-4.76-1.873v-3.356l17.558-2.497zM631.011 56.496V26.062l-4.682-1.873v-3.276l17.011-2.498 1.717.157v4.994h.468c3.668-3.278 9.13-5.385 14.514-5.385 7.413 0 10.69 3.512 10.69 11.315v27l4.449 2.028v3.433h-22.63v-3.433l3.98-1.794V31.837c0-4.291-1.872-6.009-5.385-6.009-2.262 0-4.213.625-5.852 1.326V56.73l3.902 1.794v3.433h-22.63v-3.433l4.448-2.028zM695.775 22.005c-3.198 0-4.993 2.496-4.993 11.236 0 8.194 1.795 10.69 4.993 10.69 3.2 0 5.073-2.653 5.073-10.767 0-8.663-1.795-11.159-5.073-11.159m12.018 46.975c0-2.106-1.25-3.433-4.995-3.433h-14.904c-1.638 1.092-2.34 2.34-2.34 3.745 0 3.747 2.183 5.93 9.909 5.93 8.35 0 12.33-2.34 12.33-6.242m-33.086 2.185c0-3.355 3.823-5.618 9.052-6.71v-.39c-3.668-1.093-6.243-4.37-6.243-8.35 0-4.213 2.965-7.413 7.725-9.208v-.39c-4.604-2.263-7.882-6.945-7.882-12.797 0-9.676 7.414-15.14 18.416-15.14 3.902 0 7.335.86 9.832 1.873h.547l11.158-1.949h.78v8.114H717l-7.334-2.262v.469c3.043 2.496 4.525 5.539 4.525 9.284 0 9.598-7.57 14.67-18.416 14.67-2.653 0-4.838-.39-6.866-.78-.937.78-1.64 1.717-1.64 2.887 0 1.717 1.093 2.81 3.356 2.81h14.28c9.52 0 14.124 2.73 14.124 10.456 0 9.13-7.803 15.684-23.644 15.684-13.11 0-20.678-2.34-20.678-8.27M728.833 58.68c0-4.214 3.2-7.726 7.725-7.726 4.603 0 7.803 3.512 7.803 7.726 0 4.213-3.2 7.803-7.803 7.803-4.526 0-7.725-3.59-7.725-7.803m3.823-44.712l-2.809 10.299h-6.398V10.612c3.589-1.171 8.817-2.185 14.202-2.185 11.236 0 19.274 3.823 19.274 14.046 0 7.101-3.902 10.845-11.081 14.904-5.384 2.887-7.413 4.447-7.413 7.179 0 .702.155 1.327.39 2.34h-6.165c-.858-1.404-1.638-3.433-1.638-6.008 0-3.666 1.717-6.01 4.994-8.661 3.901-3.278 5.619-5.775 5.619-11.003 0-5.463-1.874-7.49-6.088-7.49-1.013 0-2.107.155-2.887.234M352.901 47.98c0 9.518-5.696 14.903-18.416 14.903-4.993 0-10.456-.78-14.747-2.34l-.468-11.159h5.15l3.277 7.413c1.717.936 3.98 1.482 6.633 1.482 4.838 0 7.023-2.106 7.023-5.384 0-2.808-1.483-4.291-5.853-5.306l-2.888-.702c-9.129-2.263-13.342-6.633-13.342-14.592 0-8.35 5.54-14.28 17.713-14.28 4.994 0 9.831.546 13.109 1.794v10.457h-5.15l-2.262-6.711c-1.25-.625-3.044-.936-5.385-.936-4.213 0-6.32 1.872-6.32 4.994 0 2.808 1.482 4.214 6.242 5.462l2.886.703c8.975 2.183 12.798 6.163 12.798 14.201M102.653 7.608c0 4.136-3.511 7.257-7.57 7.257-4.213 0-7.49-3.121-7.49-7.257 0-4.136 3.277-7.336 7.49-7.336 4.059 0 7.57 3.2 7.57 7.336zm-1.56 10.144l1.482.156v38.079l4.369 1.952v3.355H83.847V57.94l4.447-1.952v-30.51l-4.76-1.872v-3.357l17.559-2.496zM143.54 47.404c0 9.52-5.697 14.904-18.416 14.904-4.994 0-10.456-.78-14.747-2.34l-.468-11.159h5.149l3.277 7.413c1.718.936 3.98 1.483 6.633 1.483 4.838 0 7.023-2.107 7.023-5.385 0-2.808-1.482-4.291-5.852-5.306l-2.888-.702c-9.129-2.263-13.342-6.633-13.342-14.592 0-8.349 5.539-14.28 17.712-14.28 4.995 0 9.832.546 13.11 1.794v10.457h-5.15l-2.263-6.711c-1.249-.625-3.044-.936-5.384-.936-4.214 0-6.321 1.872-6.321 4.995 0 2.808 1.483 4.213 6.243 5.461l2.886.703c8.975 2.185 12.798 6.165 12.798 14.201M180.682 47.404c0 9.52-5.697 14.904-18.416 14.904-4.994 0-10.456-.78-14.747-2.34l-.468-11.159h5.149l3.278 7.413c1.717.936 3.98 1.483 6.632 1.483 4.838 0 7.023-2.107 7.023-5.385 0-2.808-1.482-4.291-5.852-5.306l-2.888-.702c-9.129-2.263-13.342-6.633-13.342-14.592 0-8.349 5.539-14.28 17.712-14.28 4.995 0 9.832.546 13.11 1.794v10.457h-5.15l-2.262-6.711c-1.25-.625-3.045-.936-5.385-.936-4.214 0-6.32 1.872-6.32 4.995 0 2.808 1.482 4.213 6.242 5.461l2.886.703c8.975 2.185 12.798 6.165 12.798 14.201M202.452 7.608c0 4.136-3.511 7.257-7.57 7.257-4.214 0-7.491-3.121-7.491-7.257 0-4.136 3.277-7.336 7.49-7.336 4.06 0 7.57 3.2 7.57 7.336zm-1.56 10.144l1.482.156v38.079l4.369 1.952v3.355h-23.098V57.94l4.448-1.952v-30.51l-4.76-1.872v-3.357l17.558-2.496zM213.531 55.832V25.399l-4.682-1.873V20.25l17.011-2.496 1.718.155v4.994h.467c3.668-3.277 9.13-5.384 14.514-5.384 7.414 0 10.691 3.51 10.691 11.315v26.999l4.448 2.028v3.433h-22.63V57.86l3.98-1.794V31.174c0-4.292-1.872-6.008-5.384-6.008-2.263 0-4.214.623-5.853 1.326v29.574l3.902 1.794v3.433h-22.63V57.86l4.448-2.028zM278.295 21.341c-3.198 0-4.993 2.498-4.993 11.238 0 8.192 1.795 10.69 4.993 10.69 3.2 0 5.073-2.654 5.073-10.77 0-8.66-1.795-11.158-5.073-11.158m12.018 46.976c0-2.107-1.25-3.433-4.995-3.433h-14.904c-1.638 1.092-2.34 2.34-2.34 3.744 0 3.747 2.183 5.932 9.909 5.932 8.35 0 12.33-2.34 12.33-6.243m-33.086 2.184c0-3.354 3.822-5.617 9.052-6.71v-.39c-3.668-1.093-6.243-4.37-6.243-8.35 0-4.213 2.965-7.413 7.725-9.208v-.388c-4.604-2.265-7.882-6.946-7.882-12.798 0-9.676 7.414-15.14 18.416-15.14 3.902 0 7.336.86 9.832 1.874h.547l11.158-1.95h.78v8.113h-1.092l-7.334-2.261v.468c3.043 2.497 4.525 5.54 4.525 9.286 0 9.597-7.57 14.67-18.416 14.67-2.653 0-4.838-.391-6.866-.781-.937.78-1.64 1.716-1.64 2.887 0 1.716 1.093 2.809 3.356 2.809h14.28c9.52 0 14.124 2.732 14.124 10.456 0 9.132-7.803 15.686-23.644 15.686-13.109 0-20.678-2.341-20.678-8.273M73.422 3.036H3.825L.98 6.254v52.072l2.845 3.22h70.19l2.843-3.222V6.256l-2.844-3.22h-.592zm-55.329 8.208h41.653L38.919 29.131 18.093 11.244zm25.974 25.13l25.203-21.69v38.271H8.57V14.683l25.203 21.692h10.295z"/></g><g transform="translate(.92 3.033)"><mask id="b" fill="#fff"><use xlink:href="#a"/></mask><path fill="#FEE307" mask="url(#b)" d="M-292.261 977.13h1846.533v-3284.366H-292.261z"/><path fill="#FEE307" mask="url(#b)" d="M-24.56 84.388h125.12V-23.363H-24.56z"/></g></g></svg>