<svg width="282" height="135" viewBox="0 0 282 135" version="1.1" xmlns="http://www.w3.org/2000/svg" xmlns:xlink="http://www.w3.org/1999/xlink">
<title>Stay with us</title>
<desc>Created using Figma</desc>
<g id="Canvas" transform="translate(-208 634)">
<g id="Stay with us">
<use xlink:href="#path0_fill" transform="translate(208.201 -625.547)" fill="#FFFFFF"/>
</g>
</g>
<defs>
<path id="path0_fill" d="M 70.9276 52.9747C 85.4669 52.9747 94.158 45.9894 94.158 33.4807C 94.158 22.1092 88.1473 18.6978 77.913 14.799L 74.664 13.4994C 68.2472 11.0626 65.7292 9.03198 65.7292 4.97073C 65.7292 0.503351 68.5721 -2.33953 74.0954 -2.33953C 77.3444 -2.33953 79.6999 -1.9334 81.2432 -1.2836L 84.1673 8.95075L 90.8278 8.95075L 90.0155 -5.26362C 86.929 -6.40077 82.2991 -7.61915 74.2579 -7.61915C 58.9876 -7.61915 52.7332 0.259674 52.7332 10.5753C 52.7332 19.9161 57.4443 24.9521 66.6227 28.7696L 69.7905 30.0692C 76.9383 32.9934 80.1873 35.024 80.1873 39.735C 80.1873 44.6897 77.0195 47.5326 70.1966 47.5326C 67.1913 47.5326 64.4296 47.0453 62.399 46.0706L 59.2312 35.2677L 52.2459 35.2677L 53.0581 50.0506C 57.2818 51.9188 64.2672 52.9747 70.9276 52.9747ZM 102.764 13.4994L 102.764 39.4101C 102.764 48.9947 107.069 52.8935 115.923 52.8935C 120.959 52.8935 125.264 51.5939 127.863 50.0506L 127.863 45.8269C 126.888 45.9894 125.182 46.0706 123.72 46.0706C 118.847 46.0706 117.547 44.2024 117.547 39.6538L 117.547 13.4994L 127.375 13.4994L 127.375 7.4887L 117.547 7.4887L 117.547 -2.82687L 102.764 -0.471351L 102.764 7.4887L 96.4287 9.68177L 96.4287 13.4994L 102.764 13.4994ZM 144.573 27.8762C 135.07 29.5007 130.521 33.6432 130.521 41.1158C 130.521 48.751 135.557 53.2184 143.111 53.2184C 148.797 53.2184 152.371 51.1878 154.97 47.8575L 155.457 47.8575C 156.676 51.0253 159.356 53.0559 164.961 53.0559C 168.534 53.0559 171.865 52.0812 173.408 51.0253L 173.408 48.1012L 169.184 45.9894L 169.184 19.8349C 169.184 9.763 162.28 6.43278 150.259 6.43278C 143.274 6.43278 137.994 7.97605 133.77 9.27565L 133.77 21.5406L 140.268 21.5406L 143.274 11.7936C 144.492 11.4687 145.629 11.3063 147.172 11.3063C 152.371 11.3063 154.32 13.8243 154.32 19.9161L 154.32 26.008L 144.573 27.8762ZM 150.421 45.7457C 147.172 45.7457 144.898 44.3649 144.898 38.6791C 144.898 33.7244 146.766 31.4501 150.746 31.044L 154.32 30.6378L 154.32 44.4461C 153.508 45.2583 152.127 45.7457 150.421 45.7457ZM 181.422 63.2903C 179.797 63.2903 178.173 63.0466 176.548 62.7217L 176.548 67.9201C 178.822 69.4634 181.34 70.1132 184.021 70.1132C 190.844 70.1132 195.23 66.5393 199.21 56.0612L 215.617 13.0932L 219.354 11.1438L 219.354 7.4887L 204.246 7.4887L 204.246 11.1438L 209.201 13.2557L 200.753 36.486L 200.428 36.486L 192.387 13.1745L 197.179 11.1438L 197.179 7.4887L 173.137 7.4887L 173.137 11.1438L 176.467 13.0932L 193.199 53.3808L 192.387 55.5739C 190.275 61.3409 186.376 63.2903 181.422 63.2903ZM 42.889 80.4887L 33.142 80.4887L 26.0755 107.212L 25.5069 107.212L 20.4709 86.2557L 24.451 84.1438L 24.451 80.4887L 0.652048 80.4887L 0.652048 84.1438L 4.55085 86.2557L 15.7599 125L 27.1314 125L 33.8731 101.201L 34.198 101.201L 41.5082 125L 52.9609 125L 63.7639 86.2557L 67.5814 84.1438L 67.5814 80.4887L 53.0422 80.4887L 53.0422 84.1438L 57.0222 86.2557L 51.905 107.374L 51.3364 107.374L 42.889 80.4887ZM 80.636 61.4821C 76.2499 61.4821 72.8384 64.8123 72.8384 69.1172C 72.8384 73.4221 76.2499 76.6711 80.636 76.6711C 84.8597 76.6711 88.5149 73.4221 88.5149 69.1172C 88.5149 64.8123 84.8597 61.4821 80.636 61.4821ZM 68.6147 82.2756L 68.6147 85.7683L 73.5695 87.7177L 73.5695 119.477L 68.9396 121.507L 68.9396 125L 92.9822 125L 92.9822 121.507L 88.4336 119.477L 88.4336 79.8389L 86.8904 79.6764L 68.6147 82.2756ZM 99.4164 86.4994L 99.4164 112.41C 99.4164 121.995 103.721 125.893 112.575 125.893C 117.611 125.893 121.916 124.594 124.515 123.051L 124.515 118.827C 123.54 118.989 121.834 119.071 120.372 119.071C 115.499 119.071 114.199 117.202 114.199 112.654L 114.199 86.4994L 124.028 86.4994L 124.028 80.4887L 114.199 80.4887L 114.199 70.1731L 99.4164 72.5286L 99.4164 80.4887L 93.0808 82.6818L 93.0808 86.4994L 99.4164 86.4994ZM 127.173 121.507L 127.173 125L 150.729 125L 150.729 121.507L 146.667 119.639L 146.667 88.6924C 148.373 87.9614 150.322 87.3928 152.759 87.3928C 156.414 87.3928 158.364 89.1798 158.364 93.6471L 158.364 119.639L 154.221 121.507L 154.221 125L 177.776 125L 177.776 121.507L 173.147 119.395L 173.147 91.2104C 173.147 83.0879 169.735 79.4328 162.019 79.4328C 156.414 79.4328 150.81 81.6259 146.911 85.0373L 146.424 85.0373L 146.424 61.0759L 144.555 60.8322L 126.93 63.4314L 126.93 67.0054L 131.803 68.9548L 131.803 119.395L 127.173 121.507ZM 197.482 87.799L 197.482 113.466C 197.482 121.101 201.38 126.137 209.909 126.137C 215.432 126.137 219.981 123.538 223.23 120.533L 223.717 120.533L 223.717 125.812L 225.504 125.975L 243.049 123.944L 243.049 120.614L 238.257 118.177L 238.257 79.8389L 236.47 79.6764L 218.681 82.1132L 218.681 85.6871L 223.555 87.799L 223.555 116.878C 221.849 117.609 219.981 118.177 217.788 118.177C 214.376 118.177 212.346 116.878 212.346 112.654L 212.346 79.8389L 210.396 79.6764L 192.608 82.1132L 192.608 85.6871L 197.482 87.799ZM 267.68 95.759L 264.675 95.028C 259.72 93.7284 258.177 92.2663 258.177 89.3422C 258.177 86.0932 260.37 84.1438 264.756 84.1438C 267.193 84.1438 269.061 84.4687 270.36 85.1185L 272.716 92.1039L 278.077 92.1039L 278.077 81.2197C 274.665 79.9201 269.629 79.3516 264.431 79.3516C 251.76 79.3516 245.993 85.5247 245.993 94.2157C 245.993 102.501 250.379 107.049 259.882 109.405L 262.888 110.136C 267.436 111.192 268.979 112.735 268.979 115.659C 268.979 119.071 266.705 121.264 261.669 121.264C 258.908 121.264 256.552 120.695 254.765 119.72L 251.354 112.004L 245.993 112.004L 246.48 123.619C 250.948 125.244 256.633 126.056 261.832 126.056C 275.071 126.056 281.001 120.451 281.001 110.542C 281.001 102.176 277.021 98.0333 267.68 95.759Z"/>
</defs>
</svg>
